<svg width="360" height="440" viewBox="0 0 360 440" fill="none" xmlns="http://www.w3.org/2000/svg">
<path d="M326.435 211.084L291.227 260.263L289.154 283.563L268.443 275.283L264.621 274.519L232.203 268.035L221.713 271.001L201.139 276.831L196.36 271.01L189.231 262.335L172.138 266.479L167.478 259.231L112.599 222.992L111.052 230.24L100.516 231.741L100.175 231.787L100.028 231.409L90.3389 207.455L60.3069 192.444L47.8829 116.327L36.4919 100.8L46.8429 84.232L46.3269 51.096L94.4839 36.075L105.867 23.652L133.283 17.5L156.611 12.259L164.992 34.15L165.931 36.6L181.072 34.611L185.603 34.012L293.815 37.116L317.63 107.016L294.846 134.451L309.351 139.111V160.855L326.435 211.084Z" fill="#DFF0FC"/>
<path d="M301.099 211.084L265.891 260.263L264.621 274.519L232.203 268.035L221.713 271.001L206.868 268.035L196.36 271.01L189.231 262.335L172.138 266.479L167.478 259.231L111.944 222.281L110.368 230.164L100.516 231.741L100.028 231.409L90.3389 207.455L60.3069 192.444L47.8829 116.327L36.4919 100.8L46.8429 84.232L46.3269 51.096L94.4839 36.075L105.867 23.652L133.283 17.5L140.596 36.6L160.267 34.012L165.292 36.334L181.072 34.611L268.479 37.116L292.295 107.016L269.52 134.451L284.016 139.111V160.855L301.099 211.084Z" fill="white"/>
<path d="M155.973 12L105.233 23.39L93.842 35.816L45.691 50.831L46.209 83.967L35.854 100.536L47.244 116.068L59.67 192.178L89.7 207.193L99.537 231.527L110.41 229.974L111.964 222.725L166.845 258.968L171.505 266.217L188.591 262.075L200.499 276.572L231.565 267.77L267.807 275.018L288.517 283.302L290.588 260.004L325.796 210.817L308.71 160.595V138.849L294.213 134.19L316.994 106.749L293.177 36.852L184.967 33.745L165.292 36.334L155.973 12Z" fill="white" stroke="#CBE5F9" stroke-width="2.316" stroke-linecap="round" stroke-linejoin="round"/>
<path d="M177.576 25.861L177.571 25.85H177.531C175.822 25.344 174.016 25.062 172.143 25.062C170.27 25.062 168.464 25.344 166.754 25.85H166.714L166.709 25.861C158.882 28.198 153.172 35.445 153.173 44.033C153.173 47.471 154.097 50.686 155.703 53.46C165.182 69.829 172.147 77.007 172.147 77.007C172.147 77.007 179.11 69.829 188.586 53.462C190.192 50.688 191.116 47.473 191.115 44.035C191.115 35.447 185.404 28.2 177.576 25.862V25.861ZM176.428 50.767C176.428 50.767 176.426 50.768 176.424 50.769C176.135 51.111 175.724 51.382 175.167 51.521C171.405 52.463 167.177 51.478 165.154 47.882C164.965 47.547 164.863 47.216 164.827 46.898C164.428 46.328 164.149 45.634 164.05 44.85C163.793 42.82 164.756 40.226 166.248 38.862C166.863 38.299 167.545 37.903 168.267 37.614C169.795 36.206 171.796 35.519 173.668 36.702C173.9 36.726 174.136 36.76 174.381 36.806C174.945 36.911 175.431 37.175 175.83 37.538C176.324 37.731 176.81 38.005 177.251 38.421C177.436 38.595 177.608 38.785 177.773 38.982C181.399 41.997 180.368 48.423 176.426 50.767H176.428Z" fill="#DFF0FC"/>
<path d="M164.398 46.157C163.503 42.428 165.5 39.177 168.519 37.369C168.748 37.128 169.018 36.902 169.341 36.704C172.964 34.483 177.269 37.17 179.018 40.545C179.25 40.993 179.426 41.441 179.571 41.889C182.107 38.371 183.863 34.25 184.576 29.78C182.561 28.023 180.205 26.647 177.576 25.861L177.571 25.85H177.531C175.822 25.344 174.016 25.062 172.143 25.062C170.27 25.062 168.464 25.344 166.754 25.85H166.714L166.709 25.861C158.881 28.198 153.172 35.445 153.173 44.033C153.173 47.471 154.097 50.686 155.703 53.46C155.739 53.523 155.774 53.579 155.81 53.641C156.065 53.655 156.317 53.68 156.576 53.68C160.846 53.68 164.888 52.728 168.516 51.038C166.544 50.182 164.967 48.52 164.399 46.157H164.398Z" fill="#BDDDF5"/>
<path d="M191.114 44.035C191.114 35.447 185.403 28.2 177.575 25.861L177.57 25.85H177.53C175.821 25.344 174.015 25.062 172.142 25.062C170.269 25.062 168.463 25.344 166.753 25.85H166.713L166.708 25.861C158.88 28.198 153.172 35.445 153.172 44.033C153.172 47.471 154.096 50.686 155.702 53.46C165.181 69.829 172.146 77.007 172.146 77.007C172.146 77.007 179.109 69.829 188.585 53.462C190.191 50.688 191.114 47.473 191.114 44.035V44.035Z" stroke="#1B3445" stroke-width="1.272" stroke-linecap="round" stroke-linejoin="round"/>
<path d="M180.078 44.215C180.078 48.598 176.526 52.151 172.143 52.151C167.76 52.151 164.207 48.597 164.206 44.214C164.206 39.831 167.758 36.278 172.141 36.278C176.524 36.278 180.077 39.832 180.078 44.215Z" stroke="#1B3445" stroke-width="1.272" stroke-linecap="round" stroke-linejoin="round"/>
<path d="M279.315 86.905L279.31 86.894H279.27C277.561 86.388 275.755 86.106 273.882 86.106C272.009 86.106 270.203 86.388 268.493 86.894H268.453L268.448 86.905C260.621 89.242 254.911 96.489 254.912 105.077C254.912 108.515 255.836 111.73 257.442 114.504C266.921 130.873 273.886 138.051 273.886 138.051C273.886 138.051 280.849 130.873 290.325 114.506C291.931 111.732 292.855 108.517 292.854 105.079C292.854 96.491 287.143 89.244 279.315 86.906V86.905ZM278.167 111.811C278.167 111.811 278.165 111.812 278.163 111.813C277.874 112.155 277.463 112.426 276.906 112.565C273.144 113.507 268.916 112.522 266.893 108.926C266.704 108.591 266.602 108.26 266.566 107.942C266.167 107.372 265.888 106.678 265.789 105.894C265.532 103.864 266.495 101.27 267.987 99.906C268.602 99.343 269.284 98.947 270.006 98.658C271.534 97.25 273.535 96.563 275.407 97.746C275.639 97.77 275.875 97.804 276.12 97.85C276.684 97.955 277.17 98.219 277.569 98.582C278.063 98.775 278.549 99.049 278.99 99.465C279.175 99.639 279.347 99.829 279.512 100.026C283.138 103.041 282.107 109.467 278.165 111.811H278.167Z" fill="#DFF0FC"/>
<path d="M266.137 107.2C265.242 103.471 267.239 100.22 270.258 98.412C270.487 98.171 270.757 97.945 271.08 97.747C274.703 95.526 279.008 98.213 280.757 101.588C280.989 102.036 281.165 102.484 281.31 102.932C283.846 99.414 285.602 95.293 286.315 90.823C284.3 89.066 281.944 87.69 279.315 86.904L279.31 86.893H279.27C277.561 86.387 275.755 86.105 273.882 86.105C272.009 86.105 270.203 86.387 268.493 86.893H268.453L268.448 86.904C260.62 89.241 254.911 96.488 254.912 105.076C254.912 108.514 255.836 111.729 257.442 114.503C257.478 114.566 257.513 114.622 257.549 114.684C257.804 114.698 258.056 114.723 258.315 114.723C262.585 114.723 266.627 113.771 270.255 112.081C268.283 111.225 266.706 109.563 266.138 107.2H266.137Z" fill="#BDDDF5"/>
<path d="M292.854 105.078C292.854 96.49 287.143 89.243 279.315 86.904L279.31 86.893H279.27C277.561 86.387 275.755 86.105 273.882 86.105C272.009 86.105 270.203 86.387 268.493 86.893H268.453L268.448 86.904C260.62 89.241 254.912 96.488 254.912 105.076C254.912 108.514 255.836 111.729 257.442 114.503C266.921 130.872 273.886 138.05 273.886 138.05C273.886 138.05 280.849 130.872 290.325 114.505C291.931 111.731 292.854 108.516 292.854 105.078V105.078Z" stroke="#1B3445" stroke-width="1.272" stroke-linecap="round" stroke-linejoin="round"/>
<path d="M281.817 105.258C281.817 109.641 278.265 113.194 273.882 113.194C269.499 113.194 265.946 109.64 265.945 105.257C265.945 100.874 269.497 97.321 273.88 97.321C278.263 97.321 281.816 100.875 281.817 105.258V105.258Z" stroke="#1B3445" stroke-width="1.272" stroke-linecap="round" stroke-linejoin="round"/>
<path d="M94.485 87.163L94.48 87.152H94.44C92.731 86.646 90.925 86.364 89.052 86.364C87.179 86.364 85.373 86.646 83.663 87.152H83.623L83.618 87.163C75.791 89.5 70.081 96.747 70.082 105.335C70.082 108.773 71.006 111.988 72.612 114.762C82.091 131.131 89.056 138.309 89.056 138.309C89.056 138.309 96.019 131.131 105.495 114.764C107.101 111.99 108.025 108.775 108.024 105.337C108.024 96.749 102.313 89.502 94.485 87.164V87.163ZM93.337 112.069C93.337 112.069 93.335 112.07 93.333 112.071C93.044 112.413 92.633 112.684 92.076 112.823C88.314 113.765 84.086 112.78 82.063 109.184C81.874 108.849 81.772 108.518 81.736 108.2C81.337 107.63 81.058 106.936 80.959 106.152C80.702 104.122 81.665 101.528 83.157 100.164C83.772 99.601 84.454 99.205 85.176 98.916C86.704 97.508 88.705 96.821 90.577 98.004C90.809 98.028 91.045 98.062 91.29 98.108C91.854 98.213 92.34 98.477 92.739 98.84C93.233 99.033 93.719 99.307 94.16 99.723C94.345 99.897 94.517 100.087 94.682 100.284C98.308 103.299 97.277 109.725 93.335 112.069H93.337Z" fill="#DFF0FC"/>
<path d="M81.307 107.459C80.412 103.73 82.409 100.479 85.428 98.671C85.657 98.43 85.927 98.204 86.25 98.006C89.873 95.785 94.178 98.472 95.927 101.847C96.159 102.295 96.335 102.743 96.48 103.191C99.016 99.673 100.772 95.552 101.485 91.082C99.47 89.325 97.114 87.949 94.485 87.163L94.48 87.152H94.44C92.731 86.646 90.925 86.364 89.052 86.364C87.179 86.364 85.373 86.646 83.663 87.152H83.623L83.618 87.163C75.79 89.5 70.081 96.747 70.082 105.335C70.082 108.773 71.006 111.988 72.612 114.762C72.648 114.825 72.683 114.881 72.719 114.943C72.974 114.957 73.226 114.982 73.485 114.982C77.755 114.982 81.797 114.03 85.425 112.34C83.453 111.484 81.876 109.822 81.308 107.459H81.307Z" fill="#BDDDF5"/>
<path d="M108.024 105.337C108.024 96.749 102.313 89.502 94.485 87.163L94.48 87.152H94.44C92.731 86.646 90.925 86.364 89.052 86.364C87.179 86.364 85.373 86.646 83.663 87.152H83.623L83.618 87.163C75.79 89.5 70.082 96.747 70.082 105.335C70.082 108.773 71.006 111.988 72.612 114.762C82.091 131.131 89.056 138.309 89.056 138.309C89.056 138.309 96.019 131.131 105.495 114.764C107.101 111.99 108.024 108.775 108.024 105.337V105.337Z" stroke="#1B3445" stroke-width="1.272" stroke-linecap="round" stroke-linejoin="round"/>
<path d="M96.987 105.517C96.987 109.9 93.435 113.453 89.052 113.453C84.669 113.453 81.116 109.899 81.115 105.516C81.115 101.133 84.667 97.58 89.05 97.58C93.433 97.58 96.986 101.134 96.987 105.517Z" stroke="#1B3445" stroke-width="1.272" stroke-linecap="round" stroke-linejoin="round"/>
<path d="M90.297 65.193C90.297 65.193 119.475 40.452 145.986 52.021" stroke="#1B3445" stroke-width="1.272" stroke-linecap="round" stroke-linejoin="round"/>
<path d="M244.503 98.958C226.109 99.656 202.692 94.38 193.555 65.957" stroke="#1B3445" stroke-width="1.272" stroke-linecap="round" stroke-linejoin="round"/>
<path d="M255.309 152.865L241.746 214.711L293.697 226.105L307.261 164.259L255.309 152.865Z" fill="white"/>
<path d="M255.309 152.865L241.746 214.711L293.697 226.105L307.261 164.259L255.309 152.865Z" stroke="#CBE5F9" stroke-width="2.316" stroke-linecap="round" stroke-linejoin="round"/>
<path d="M307.262 164.262L293.698 226.109L325.824 233.154L339.388 171.308L307.262 164.262Z" fill="white"/>
<path d="M307.262 164.262L293.698 226.109L325.824 233.154L339.388 171.308L307.262 164.262Z" stroke="#CBE5F9" stroke-width="2.316" stroke-linecap="round" stroke-linejoin="round"/>
<path d="M267.424 198.814L264.663 211.286L287.944 216.44L290.705 203.968L267.424 198.814Z" fill="white"/>
<path d="M267.424 198.814L264.663 211.286L287.944 216.44L290.705 203.968L267.424 198.814Z" stroke="#CBE5F9" stroke-width="2.316" stroke-linecap="round" stroke-linejoin="round"/>
<path d="M70.3615 164.064L21.2942 175.159L34.5021 233.572L83.5695 222.477L70.3615 164.064Z" fill="white"/>
<path d="M70.3615 164.064L21.2942 175.159L34.5021 233.572L83.5695 222.477L70.3615 164.064Z" stroke="#CBE5F9" stroke-width="2.316" stroke-linecap="round" stroke-linejoin="round"/>
<path d="M100.697 157.203L70.3604 164.063L83.5693 222.476L113.906 215.616L100.697 157.203Z" fill="white"/>
<path d="M100.697 157.203L70.3604 164.063L83.5693 222.476L113.906 215.616L100.697 157.203Z" stroke="#CBE5F9" stroke-width="2.316" stroke-linecap="round" stroke-linejoin="round"/>
<path d="M72.312 207.695L59.579 210.574" stroke="#CBE5F9" stroke-width="2.316" stroke-linecap="round" stroke-linejoin="round"/>
<path d="M73.4009 212.503L56.1489 216.405" stroke="#CBE5F9" stroke-width="2.316" stroke-linecap="round" stroke-linejoin="round"/>
<path fill-rule="evenodd" clip-rule="evenodd" d="M153.746 196.634L206.417 187.135L232.456 209.002C232.456 209.002 239.692 212.087 246.766 215.788C253.605 219.369 260.21 223.444 264.746 230.645C273.26 244.166 277.421 264.123 282.964 281.739C287.469 296.053 289.779 307.997 293.34 318.772C297.241 330.58 298.191 343.767 297.424 350.729C295.617 367.139 284.361 366.661 284.361 366.661L208.758 354.934C208.758 354.934 108.608 392.268 75.1571 367.177C59.0131 355.067 67.3931 322.411 77.6611 289.236C84.6561 266.642 89.3311 243.187 100.216 228.254C104.45 222.445 127.218 212.031 141.656 204.604C148.534 201.065 153.745 196.632 153.745 196.632L153.746 196.634Z" fill="#1B92D1"/>
<path fill-rule="evenodd" clip-rule="evenodd" d="M212.828 103.717C212.828 103.717 220.888 109.765 224.625 121.771C228.53 134.322 228.239 153.21 233.948 170.383C239.967 188.481 250.949 202.532 250.515 221.131C250.363 227.683 236.694 245.599 235.619 251.27C234.647 256.392 237.045 268.604 235.52 272.708C232.3 281.363 219.819 288.495 213.335 287.569C210.261 287.131 211.794 285.867 211.482 281.193C211.147 276.162 207.837 270.12 207.35 267.958C204.718 256.231 218.559 248.645 214.735 237.914C213.007 233.068 209.163 221.634 207.835 217.55C205.188 209.409 204.214 201.732 204.214 201.732L154.963 201.307L151.84 218.107C151.84 218.107 146.462 230.696 144.549 238.251C143.498 242.401 153.279 261.657 152.139 266.109C151.258 269.554 148.401 275.692 147.775 279.487C147.094 283.613 148.597 285.305 146.369 286.462C140.407 289.561 129.419 281.812 126.104 277.36C122.024 271.877 125.41 260.592 122.719 251.535C120.947 245.573 110.192 230.102 108.779 223.201C105.491 207.154 118.342 193.51 125.392 169.461C129.815 154.373 130.554 133.442 135.647 118.108C138.664 109.023 144.112 103.031 150.297 98.3096C161.446 89.8006 177.604 86.6646 189.718 89.7146C203.651 93.2236 212.828 103.716 212.828 103.716V103.717Z" fill="white"/>
<path fill-rule="evenodd" clip-rule="evenodd" d="M140.269 151.015C144.899 147.312 155.492 147.722 162.811 141.045C170.664 133.88 175.347 119.66 183.102 117.196C186.099 116.244 189.037 119.536 191.669 119.799C200.002 120.636 199.887 134.572 204.416 142.951C206.543 146.889 213.472 148.031 215.865 148.886C221.465 150.883 219.784 159.749 217.209 164.412C214.404 169.488 210.412 170.299 210.412 170.299L204.611 193.901C204.611 193.901 206.015 205.476 197.883 214.911C194.394 218.957 191.196 223.564 187.022 225.948C184.023 227.661 183.498 232.822 182.521 236.487C180.853 242.748 180.163 247.938 180.163 247.938C180.163 247.938 179.909 231.397 176.637 227.501C171.226 221.054 164.449 218.015 160.597 211.739C155.614 203.618 155.233 194.236 155.233 194.236L147.975 171.458C147.975 171.458 144.914 171.304 141.615 167.149C138.459 163.169 134.937 155.281 140.27 151.016L140.269 151.015Z" fill="white"/>
<path fill-rule="evenodd" clip-rule="evenodd" d="M64.2421 319.799L64.3961 319.655C64.9681 319.121 65.6821 318.764 66.4521 318.625L69.6221 318.055C69.8621 318.012 70.1051 317.99 70.3481 317.991L291.16 318.293C291.778 318.293 292.389 318.436 292.944 318.708C294.229 319.337 295.09 320.595 295.21 322.021L295.308 323.179C295.345 323.624 295.31 324.072 295.202 324.505L270.449 423.853C270.161 425.007 269.383 425.978 268.319 426.51L267.179 427.08C266.617 427.361 265.998 427.508 265.37 427.509L96.8761 427.927C96.1021 427.929 95.3431 427.71 94.6891 427.296L93.5821 426.595C92.7391 426.061 92.1211 425.236 91.8461 424.277L63.1051 323.897C62.6841 322.427 63.1231 320.845 64.2411 319.801L64.2421 319.799Z" fill="#D7E8F4"/>
<path fill-rule="evenodd" clip-rule="evenodd" d="M64.3461 319.702C64.9511 319.138 65.7051 318.76 66.5191 318.613L69.6011 318.058C69.8541 318.012 70.1111 317.99 70.3691 317.99L291.161 318.292C291.779 318.292 292.39 318.435 292.945 318.707C294.243 319.343 295.108 320.618 295.22 322.06C295.252 322.472 295.284 322.87 295.31 323.186C295.346 323.629 295.31 324.073 295.202 324.504L270.653 423.033C270.236 424.707 269.107 426.115 267.564 426.886C266.749 427.293 265.851 427.506 264.94 427.509L97.4441 427.924C96.2991 427.927 95.1771 427.603 94.2091 426.99C92.9621 426.2 92.0481 424.98 91.6421 423.561L63.1441 324.032C62.6991 322.478 63.1631 320.805 64.3451 319.702H64.3461Z" stroke="#1B3445" stroke-width="1.272" stroke-linecap="round" stroke-linejoin="round"/>
<path fill-rule="evenodd" clip-rule="evenodd" d="M174.425 376.178C174.425 371.499 178.368 367.704 183.232 367.704C188.096 367.704 192.039 371.499 192.039 376.178C192.039 380.857 188.096 384.652 183.232 384.652C178.368 384.652 174.425 380.859 174.425 376.178Z" fill="white"/>
<path fill-rule="evenodd" clip-rule="evenodd" d="M174.425 376.178C174.425 371.499 178.368 367.704 183.232 367.704C188.096 367.704 192.039 371.499 192.039 376.178C192.039 380.857 188.096 384.652 183.232 384.652C178.368 384.652 174.425 380.859 174.425 376.178Z" stroke="#1B3445" stroke-width="1.272" stroke-linecap="round" stroke-linejoin="round"/>
<path d="M163.9 166.372C162.255 166.372 160.544 165.488 159.643 164.529C159.124 163.977 159.15 163.108 159.703 162.589C160.254 162.07 161.124 162.094 161.644 162.649C162.091 163.124 163.319 163.747 164.148 163.608C164.382 163.569 164.625 163.473 164.816 163.047C165.127 162.355 165.939 162.045 166.631 162.355C167.323 162.665 167.633 163.478 167.323 164.17C166.796 165.347 165.83 166.109 164.605 166.315C164.374 166.354 164.139 166.372 163.902 166.372H163.9Z" fill="#1B3445"/>
<path d="M192.871 165.534C192.743 165.534 192.617 165.529 192.491 165.517C191.252 165.401 190.233 164.712 189.621 163.577C189.261 162.909 189.51 162.077 190.178 161.717C190.845 161.357 191.679 161.606 192.038 162.274C192.26 162.684 192.509 162.761 192.746 162.783C193.586 162.874 194.762 162.149 195.171 161.643C195.647 161.055 196.51 160.963 197.103 161.44C197.692 161.917 197.783 162.782 197.306 163.372C196.423 164.462 194.617 165.534 192.872 165.534H192.871Z" fill="#1B3445"/>
<path d="M143.406 155.764C143.406 155.764 142.254 158.069 143.406 158.728" stroke="#1B3445" stroke-width="1.272" stroke-linecap="round" stroke-linejoin="round"/>
<path d="M145.381 170.128C129.205 155.804 142.417 149.836 142.417 149.836" stroke="#1B3445" stroke-width="1.272" stroke-linecap="round" stroke-linejoin="round"/>
<path d="M177.967 162.305C177.967 162.305 180.245 166.861 178.211 171.824C176.177 176.787 175.282 177.275 179.106 179.878" stroke="#1B3445" stroke-width="1.272" stroke-linecap="round" stroke-linejoin="round"/>
<path d="M170.924 187.921C171.246 188.354 181.06 197.234 189.315 185.182" stroke="#1B3445" stroke-width="1.272" stroke-linecap="round" stroke-linejoin="round"/>
<path d="M186.049 150.915C186.049 150.915 194.944 147.01 199.174 149.939" stroke="#1B3445" stroke-width="1.272" stroke-linecap="round" stroke-linejoin="round"/>
<path d="M156.109 151.892C156.109 151.892 163.702 148.312 169.018 151.567" stroke="#1B3445" stroke-width="1.272" stroke-linecap="round" stroke-linejoin="round"/>
<path d="M212.191 159.485C212.191 159.485 212.95 157.099 213.927 156.882" stroke="#1B3445" stroke-width="1.272" stroke-linecap="round" stroke-linejoin="round"/>
<path d="M213.601 148.095C213.601 148.095 220.76 148.963 220.435 153.844C220.11 158.725 218.049 167.186 211.432 169.573" stroke="#1B3445" stroke-width="1.272" stroke-linecap="round" stroke-linejoin="round"/>
<path d="M144.069 155.797C144.069 155.797 141.14 157.316 143.418 159.594" stroke="#1B3445" stroke-width="1.272" stroke-linecap="round" stroke-linejoin="round"/>
<path d="M146.889 164.258C146.889 164.258 149.709 186.062 155.675 192.895C161.641 199.729 170.645 206.997 177.912 207.431C185.18 207.865 197.329 202.007 201.343 194.631C205.357 187.255 210.346 174.78 210.563 165.777" stroke="#1B3445" stroke-width="1.272" stroke-linecap="round" stroke-linejoin="round"/>
<path d="M196.028 121.41C196.028 121.41 199.716 126.183 201.343 134.535C202.97 142.887 209.262 147.118 209.262 147.118" stroke="#1B3445" stroke-width="1.272" stroke-linecap="round" stroke-linejoin="round"/>
<path d="M188.218 161.329C188.218 161.329 194.727 164.041 198.523 160.57" stroke="#1B3445" stroke-width="1.272" stroke-linecap="round" stroke-linejoin="round"/>
<path d="M158.062 162.305C158.062 162.305 163.269 164.475 167.825 162.413" stroke="#1B3445" stroke-width="1.272" stroke-linecap="round" stroke-linejoin="round"/>
<path d="M148.408 147.01C148.408 147.01 159.906 144.84 166.523 137.681C173.14 130.522 176.286 119.24 181.384 117.722C186.482 116.203 188.977 117.939 188.977 117.939" stroke="#1B3445" stroke-width="1.272" stroke-linecap="round" stroke-linejoin="round"/>
<path d="M195.269 112.841C195.269 112.841 197.981 104.163 197.981 101.777" stroke="#1B3445" stroke-width="1.272" stroke-linecap="round" stroke-linejoin="round"/>
<path d="M204.598 98.8467C204.598 98.8467 211.974 99.7147 218.808 111.43C225.642 123.145 228.462 144.949 230.306 155.254C232.15 165.559 238.225 184.217 243.431 194.305C248.637 204.393 251.567 211.661 250.482 219.037C249.397 226.413 247.119 229.451 240.502 240.624C233.885 251.797 237.465 267.092 236.38 270.563C235.295 274.034 232.366 279.241 228.787 280.977" stroke="#1B3445" stroke-width="1.272" stroke-linecap="round" stroke-linejoin="round"/>
<path d="M221.628 273.384C221.628 273.384 221.845 283.798 216.638 287.269" stroke="#1B3445" stroke-width="1.272" stroke-linecap="round" stroke-linejoin="round"/>
<path d="M210.022 290.306C210.022 290.306 212.734 282.93 209.914 275.662C207.094 268.394 205.683 262.103 208.829 255.92C211.975 249.737 217.182 243.445 214.036 233.9C210.89 224.354 205.141 213.181 204.599 204.503C204.057 195.825 205.684 185.411 205.684 185.411" stroke="#1B3445" stroke-width="1.272" stroke-linecap="round" stroke-linejoin="round"/>
<path d="M179.974 252.123C179.974 252.123 182.577 239.106 182.686 234.767C182.782 230.935 184.739 228.203 187.436 225.898C187.793 225.593 188.163 225.295 188.543 225.004C191.797 222.509 201.343 212.746 203.513 201.248" stroke="#1B3445" stroke-width="1.272" stroke-linecap="round" stroke-linejoin="round"/>
<path d="M187.893 226.306C187.893 226.306 189.737 225.33 194.293 230.211C198.849 235.092 198.632 238.021 200.91 237.262C203.188 236.503 208.286 218.387 208.286 218.387" stroke="#1B3445" stroke-width="1.272" stroke-linecap="round" stroke-linejoin="round"/>
<path d="M154.943 192.326C154.943 192.326 155.024 201.574 158.496 207.54C161.968 213.506 166.957 219.689 173.574 224.354C180.191 229.018 178.781 237.913 178.889 242.578C178.997 247.242 181.167 283.907 182.143 289.873C183.119 295.839 182.577 316.341 182.36 317.86" stroke="#1B3445" stroke-width="1.272" stroke-linecap="round" stroke-linejoin="round"/>
<path d="M254.388 257.655C254.388 257.655 249.615 269.37 249.507 281.411C249.399 293.452 250.266 307.879 249.29 312.218C248.314 316.557 248.314 317.642 248.314 317.642" stroke="#1B3445" stroke-width="1.272" stroke-linecap="round" stroke-linejoin="round"/>
<path d="M153.642 190.617C153.642 190.617 156.164 201.519 153.723 210.793C151.282 220.067 144.488 232.19 144.549 238.251C144.611 244.312 147.54 249.844 150.468 257.166C153.397 264.488 147.846 272.358 147.774 279.487C147.702 286.617 149.492 290.034 149.492 290.034" stroke="#1B3445" stroke-width="1.272" stroke-linecap="round" stroke-linejoin="round"/>
<path d="M152.584 218.604C152.584 218.604 156.977 232.597 158.93 235.363C160.883 238.129 161.208 237.316 164.788 232.922C168.368 228.529 171.622 224.136 174.876 225.763" stroke="#1B3445" stroke-width="1.272" stroke-linecap="round" stroke-linejoin="round"/>
<path d="M155.838 197.126C155.838 197.126 155.675 207.702 164.95 216.163C174.225 224.624 176.665 222.997 178.292 229.668C179.919 236.339 179.268 250.333 179.268 250.333" stroke="#1B3445" stroke-width="1.272" stroke-linecap="round" stroke-linejoin="round"/>
<path d="M137.777 273.113C137.777 273.113 135.814 282.641 142.984 287.106" stroke="#1B3445" stroke-width="1.272" stroke-linecap="round" stroke-linejoin="round"/>
<path d="M130.455 280.76C130.455 280.76 122.157 275.879 122.97 265.953C123.784 256.028 121.343 244.149 114.346 233.41C107.349 222.671 107.512 215.674 110.441 207.701C113.37 199.728 125.736 176.297 127.038 166.697C128.34 157.097 131.269 125.368 138.428 112.514C145.587 99.6596 154.048 92.0117 170.971 89.5717C187.893 87.1307 196.354 93.6396 196.354 93.6396" stroke="#1B3445" stroke-width="1.272" stroke-linecap="round" stroke-linejoin="round"/>
<path d="M109.302 258.143C109.302 258.143 114.834 268.882 114.346 284.828C113.858 300.774 115.322 317.859 115.322 317.859" stroke="#1B3445" stroke-width="1.272" stroke-linecap="round" stroke-linejoin="round"/>
<path d="M108.652 221.533C108.652 221.533 99.5401 223.974 92.7061 243.825C85.8721 263.676 70.4141 317.371 70.4141 317.371" stroke="#1B3445" stroke-width="1.272" stroke-linecap="round" stroke-linejoin="round"/>
<path d="M66.834 338.361C66.834 338.361 62.804 358.774 75.07 367.279" stroke="#1B3445" stroke-width="1.272" stroke-linecap="round" stroke-linejoin="round"/>
<path d="M4 359.506H67.16" stroke="#1B3445" stroke-width="1.272" stroke-linecap="round" stroke-linejoin="round"/>
<path d="M296.042 358.32H355.565" stroke="#1B3445" stroke-width="1.272" stroke-linecap="round" stroke-linejoin="round"/>
<path d="M285.174 368.03C285.195 366.998 299.08 361.141 297.995 345.52C296.91 329.9 295.957 325.175 295.957 325.175" stroke="#1B3445" stroke-width="1.272" stroke-linecap="round" stroke-linejoin="round"/>
<path d="M250.917 217.953C250.917 217.953 262.198 220.99 271.31 244.421C280.422 267.852 294.524 320.354 294.524 320.354" stroke="#1B3445" stroke-width="1.272" stroke-linecap="round" stroke-linejoin="round"/>
</svg>
